<?xml version="1.0" ?><svg data-name="Layer 5" id="Layer_5" viewBox="0 0 32 32" xmlns="http://www.w3.org/2000/svg"><defs><style>.cls-1{fill:#fff;}.cls-2{fill:#361041;}.cls-3{fill:#ffbbbc;}.cls-4{fill:#f41870;}</style></defs><circle class="cls-1" cx="15.53" cy="6.83" r="4.97"/><polygon class="cls-1" points="9.78 13.13 11.13 15.84 8.24 18.19 8.57 19.52 9.54 21.26 7.89 22.81 8.62 25.13 10.03 28.67 24.22 28.78 24.87 27.46 26.46 23.55 25.08 21.02 26.22 19.1 26.52 16.92 22.79 14.9 23.27 13.7 23.28 11.91 22.71 10.95 14.14 10.77 9.95 11.78 9.78 13.13"/><path class="cls-2" d="M24.89,28.22c.45-1.49,1.36-2.76,1.92-4.2s.27-2.62-1.12-3.2c.77-1.5,2.43-4.77,0-5.64L25.26,15,25,15c-.54-.14-1.09-.28-1.64-.39a4.43,4.43,0,0,0,.25-2.87,3,3,0,0,0-2.05-1.91,9.4,9.4,0,0,0-2.75-.3c-.76,0-1.53-.11-2.29-.09a8,8,0,0,0,1-1.63,4.93,4.93,0,0,0,.89-2.26c0-.85-.55-1.75-1.5-1.46s-1.25,1.29-1.41,2A2.24,2.24,0,0,0,13.22,4.3c-1.1.14-1.2,1.4-.92,2.23.44,1.34,1.69,2.07,2.7,3-.21-.18-1.41,0-1.64.07a5.81,5.81,0,0,0-3.3,1.11,2.28,2.28,0,0,0-.63,2.08c.13.92.68,1.46.87,2.34-1.11.2-2.29.76-2.46,2a5.92,5.92,0,0,0,.58,3,5.11,5.11,0,0,0,.54.9,2.56,2.56,0,0,0-1.42,1c-.44.85.07,1.87.39,2.64.45,1.08,1.63,3.35,1.53,3.47-.11.34-1.83.21-2.65.27-.63.05-.82.43-.84,1,0,.41,0,.67.29,1,.51.46,13.12.06,17.08.05,1.08,0,2.17,0,3.25,0,.58,0,1.35,0,1.64-.6a1.84,1.84,0,0,0,.07-1c-.08-.5-.31-.61-.81-.58ZM10,12.89a1.73,1.73,0,0,0,.78-.32,2.19,2.19,0,0,1,2.33-.35c1.18.55,2.17.17,3.3-.32a2.81,2.81,0,0,1,.91-.26,2.57,2.57,0,0,1,1.42.57,3,3,0,0,0,2.88-.08c.24-.09,1-.4,1.28-.2s0,1.85-.19,2.21c-.1.21,0,.2-.2.25a2.17,2.17,0,0,1-.59-.09c-.25,0-.5-.06-.75-.07a45.29,45.29,0,0,0-5.08,0l-1.89.1c-.63,0-1.27.16-1.89.27-.33.06-.67.14-1,.17-.58,0-.42-.12-.67-.61A10.71,10.71,0,0,1,10,12.89ZM8.51,18.45A1.62,1.62,0,0,0,9,18.28C9.6,18,9.93,17,10.68,17.1s1.19.94,2,.86,1.16-.91,1.91-1.09a2.29,2.29,0,0,1,1.68.36,4.14,4.14,0,0,0,1.52.84,3.05,3.05,0,0,0,2.38-.77,1.45,1.45,0,0,1,1.67-.19c.27.17.48.41.75.58a2.22,2.22,0,0,0,2.53-.13c.55-.32,1.11-.24,1,.48a7.58,7.58,0,0,1-.64,1.72c-.4.88-1,.66-1.86.58a30.14,30.14,0,0,0-4.46-.16c-1.07.05-2.15.08-3.22.14l-4.7.29a9.3,9.3,0,0,1-1.29.07C9.16,20.63,8.73,19.1,8.51,18.45Zm15.4,9.9c-.67.1-11.94.19-12.86,0-.67-.12-.93-.53-1.22-1.11-.4-.81-.86-1.86-1.24-2.76.67-.27,1-1.09,1.82-.82s1.29.83,2.05.58,1.11-1.34,2-1.25c.43,0,.66.35.92.65a2.31,2.31,0,0,0,1.32.84,2,2,0,0,0,1.61-.34c.3-.22.52-.63.86-.76.59-.22,1.28.28,1.75.54a2.38,2.38,0,0,0,2.89-.14c.52-.57.85-1.24,1.68-.6s.36,1.33,0,2a11.17,11.17,0,0,0-.8,1.76C24.46,27.42,24.44,28.23,23.91,28.35Z"/><path class="cls-3" d="M11.83,13.83c.78.3,1.37-.84.5-1.08C11.71,12.58,11.09,13.53,11.83,13.83Z"/><path class="cls-3" d="M15.26,13.25c-.11-.69-1.22-.41-.94.25C14.53,14,15.35,13.81,15.26,13.25Z"/><path class="cls-3" d="M17.76,12.6a.62.62,0,0,0-.79.88C17.44,14.3,18.8,13.06,17.76,12.6Z"/><path class="cls-3" d="M21.38,13c-.36-.67-1.58,0-1.06.65C20.68,14.15,21.7,13.58,21.38,13Z"/><path class="cls-3" d="M11.06,18.89c-.29-.87-1.73-.12-1.11.67C10.4,20.12,11.28,19.52,11.06,18.89Z"/><path class="cls-3" d="M15.13,18.22c-.59-.25-1.34.62-.86,1.13C15,20.09,16.13,18.63,15.13,18.22Z"/><path class="cls-3" d="M19.63,18.58c-.45-.51-1.37,0-1.05.66C19.1,19.87,20.2,19.2,19.63,18.58Z"/><path class="cls-3" d="M23.89,18.77c-.49-.63-1.5.16-1,.67S24.42,19.43,23.89,18.77Z"/><path class="cls-3" d="M10.3,26.46c.52.67,1.67-.12,1.08-.8A.67.67,0,1,0,10.3,26.46Z"/><path class="cls-3" d="M13.76,26.38a.76.76,0,0,0,1.36-.64C14.64,24.76,13.26,25.59,13.76,26.38Z"/><path class="cls-3" d="M17.26,26.34c.45.81,2-.12,1.36-.82S16.8,25.5,17.26,26.34Z"/><path class="cls-3" d="M20.78,26.15c.38.79,1.65,0,1.27-.73A.74.74,0,0,0,20.78,26.15Z"/><path class="cls-3" d="M23.85,25.54c-.58.4-.25,1.3.44.83S24.53,25.07,23.85,25.54Z"/><path class="cls-3" d="M11.25,8.8c.24.08.94-.55.55-.53C11.58,8.28,10.75,8.65,11.25,8.8Z"/><path class="cls-3" d="M10.34,6.78c0,.27,1,0,.84-.16S10.32,6.57,10.34,6.78Z"/><path class="cls-3" d="M10.64,4.51c-.24-.11-.21.16-.14.27A1.52,1.52,0,0,0,11,5C11.6,5,10.81,4.59,10.64,4.51Z"/><path class="cls-3" d="M12.44,3.35c0-.08-.26-.55-.29-.56-.49-.24,0,.49,0,.61S12.4,3.44,12.44,3.35Z"/><path class="cls-3" d="M14,1.79c-.18.1,0,1,.24.91S14.27,1.66,14,1.79Z"/><path class="cls-3" d="M16.63,2.49a1.48,1.48,0,0,0,0-.19c0-.12.16-.67-.15-.5-.11.06-.14.6-.15.71C16.3,2.79,16.59,2.54,16.63,2.49Z"/><path class="cls-3" d="M18.94,2.54c-.16,0-.81.77-.42.79C18.69,3.34,19.25,2.58,18.94,2.54Z"/><path class="cls-3" d="M20.39,4.45c-.11-.31-1,.11-1,.3C19.3,5.1,20.49,4.76,20.39,4.45Z"/><path class="cls-3" d="M19.75,6.53a2.94,2.94,0,0,0,.59,0c.09,0,.27-.3,0-.31S19.26,6.13,19.75,6.53Z"/><path class="cls-3" d="M20.07,8.4c.41-.18-.44-.42-.55-.41C19.17,8,19.79,8.52,20.07,8.4Z"/><path class="cls-4" d="M15.75,9.4s-4.14-3.13-2.68-4.29c1.17-1,2.48,1.95,2.48,1.95s.68-2.63,1.75-2.39C19.15,5.34,15.75,9.4,15.75,9.4Z"/><path class="cls-3" d="M10.09,12.15a4.43,4.43,0,0,1,2.21-.94c1.18,0,.62.62,2.07.6s1.71-1,3-1,1.09,1,2.53,1.08a4.37,4.37,0,0,0,2.57-.74S22.61,9.8,16,10a16,16,0,0,0-4.52.61A2.17,2.17,0,0,0,10.09,12.15Z"/><path class="cls-3" d="M8.5,17.85c.72.11.82-1.15,1.91-1.32s1.14.81,2.13.76.94-.89,2.37-1.05,1.93,1.33,3.21,1.31,1.77-1.31,3.24-1.3c1.14.12,1.42,1.38,2.35,1.18s2.09-1.05,2.51-.68c0-.18,1.06-1.94-9.08-1.8S8.41,17.79,8.5,17.85Z"/><path class="cls-3" d="M8.48,23.94c.1.14.81-1.05,1.62-1.1s.92.9,2,.77,1.07-1.25,2.3-1.27S16,24,17.05,24s1-1.09,2.16-1.26,2.17,1.08,3.24,1,1.65-1.46,2.44-1.51a2.08,2.08,0,0,1,1.47.8s1.33-2.72-9.14-2.16c-8.68,0-9,1.5-9,1.5S7.78,22.78,8.48,23.94Z"/><path class="cls-4" d="M6.86,29c-.32.14-.38.5,0,.78s20.25,0,20.46-.12.31-.64.11-.8-5.06.13-10.1.17S7,29,6.86,29Z"/></svg>