<?xml version="1.0" ?><svg id="Layer_1" style="enable-background:new 0 0 700 700;" version="1.1" viewBox="0 0 700 700" xml:space="preserve" xmlns="http://www.w3.org/2000/svg" xmlns:xlink="http://www.w3.org/1999/xlink"><style type="text/css">
	.st0{fill:#EFC4AC;stroke:#000000;stroke-width:10;stroke-linecap:round;stroke-linejoin:round;stroke-miterlimit:10;}
	.st1{fill:#F9809A;stroke:#000000;stroke-width:10;stroke-linecap:round;stroke-linejoin:round;stroke-miterlimit:10;}
	.st2{fill:#FFFFFF;stroke:#000000;stroke-width:10;stroke-linecap:round;stroke-linejoin:round;stroke-miterlimit:10;}
	.st3{fill:none;stroke:#000000;stroke-width:10;stroke-linecap:round;stroke-linejoin:round;stroke-miterlimit:10;}
</style><g><path class="st0" d="M505.78,534.3v7.67c0,33.13-26.86,59.99-60.05,59.99h-225.5c-33.13,0-59.99-26.86-59.99-59.99v-7.67"/><path class="st1" d="M179.55,456.98h-45.92c-10.68,0-20.34,4.35-27.31,11.32C99.35,475.34,95,485,95,495.68   c0,21.36,17.27,38.63,38.63,38.63h26.61h345.55h24.11c10.68,0,20.34-4.28,27.37-11.32c6.97-6.97,11.32-16.63,11.32-27.31   c0-21.36-17.33-38.69-38.69-38.69h-44.45"/><polyline class="st2" points="169.09,415.12 187.61,489.22 477.57,489.22 495.31,416.74  "/><path class="st0" d="M380.65,211.64c-104.71-10.47-171.29,46.42-171.29,46.42c-53.96,53.96-56.38,92.62-56.38,92.62   c-17.72,70.88,16.11,64.43,16.11,64.43s8.05,15.3,38.66-44.3c0,0,24.16-25.77,42.69,16.11l15.3,26.58c0,0,9.67,13.69,24.97-2.42   c0,0,43.49-101.48,76.52-10.47c0,0,20.94,55.57,56.38-26.58c0,0,28.19-37.86,53.16,29c0,0,11.41,20.11,27.1,11.66   c7-3.77,10.9-11.55,10.79-19.5c-0.3-21.29-8.7-84.22-28.91-105.06"/><path class="st1" d="M479.8,153.85l-11.39-8.03c-1.65-1.16-3.51-1.95-5.5-2.27c-16.78-2.69-95.12-9.35-80.42,104.17   c0.99,7.67,4.27,14.91,9.64,20.47c9.66,10.01,27.88,25.12,53.35,30.05c16.06,3.11,32.76-1.62,45.51-11.86   c73.57-59.08,35.35-105.8,18.52-121.17c-3.74-3.42-8.32-5.74-13.3-6.69l-9.87-1.89C483.98,156.18,481.75,155.23,479.8,153.85z"/><path class="st3" d="M481.94,155.14c0,0,41.2-83.87,123.06-48.33"/><path class="st3" d="M416.54,203.96v13.94c0,24.59,19.94,44.53,44.53,44.53l0,0"/></g></svg>